<?xml version="1.0" standalone="no"?>
<!DOCTYPE svg PUBLIC "-//W3C//DTD SVG 20010904//EN"
 "http://www.w3.org/TR/2001/REC-SVG-20010904/DTD/svg10.dtd">
<svg version="1.0" xmlns="http://www.w3.org/2000/svg"
 width="2560.000000pt" height="2560.000000pt" viewBox="0 0 2560.000000 2560.000000"
 preserveAspectRatio="xMidYMid meet">
<metadata>
Created by potrace 1.16, written by Peter Selinger 2001-2019
</metadata>
<g transform="translate(0.000000,2560.000000) scale(0.100000,-0.100000)"
fill="#000000" stroke="none">
<path d="M6510 18710 c-124 -4 -332 -8 -462 -9 l-237 -1 -46 -27 c-51 -31 -49
-28 -325 -443 -240 -360 -245 -368 -270 -425 -13 -27 -29 -62 -36 -76 -8 -16
-10 -29 -4 -35 11 -11 87 -4 210 20 110 22 187 34 280 45 41 5 113 14 160 20
47 6 126 16 175 23 123 15 887 16 1025 0 116 -13 267 -29 405 -42 115 -11 217
-25 330 -46 50 -9 113 -20 140 -25 28 -5 82 -16 120 -24 39 -9 88 -20 110 -25
22 -5 62 -14 90 -20 51 -11 170 -40 265 -66 30 -8 73 -20 95 -25 22 -6 58 -15
80 -21 22 -6 60 -16 85 -23 25 -8 65 -19 90 -26 69 -18 143 -40 165 -48 11 -4
76 -26 145 -49 157 -52 187 -62 227 -79 17 -7 35 -13 39 -13 4 0 26 -8 48 -19
23 -10 109 -47 191 -82 143 -60 455 -214 595 -293 36 -20 76 -42 90 -49 14 -6
27 -14 30 -17 3 -3 43 -27 90 -54 223 -128 528 -331 765 -510 66 -50 122 -93
125 -97 3 -3 59 -48 126 -100 66 -52 178 -142 249 -201 109 -92 134 -108 163
-108 32 0 55 21 311 281 152 154 279 290 283 301 14 37 -4 68 -76 127 -39 33
-116 97 -170 143 -133 111 -252 208 -290 236 -17 12 -38 28 -46 35 -29 24
-250 188 -312 232 -165 116 -513 345 -523 345 -3 0 -35 19 -72 43 -275 175
-775 426 -1158 581 -77 32 -149 61 -160 66 -11 5 -53 20 -92 34 -40 14 -103
37 -140 51 -79 28 -344 114 -453 145 -41 12 -95 28 -120 35 -81 24 -277 74
-335 85 -22 4 -74 15 -115 25 -41 10 -93 21 -115 25 -22 4 -87 17 -145 29
-247 50 -440 82 -605 101 -262 29 -397 40 -555 44 -96 3 -184 7 -195 9 -11 2
-121 1 -245 -3z"/>
<path d="M18660 18710 c-14 -4 -75 -8 -137 -9 -61 -1 -171 -8 -245 -16 -73 -8
-178 -19 -233 -25 -99 -10 -123 -13 -340 -45 -178 -26 -238 -36 -275 -46 -20
-4 -65 -13 -100 -19 -94 -15 -150 -26 -345 -70 -150 -34 -324 -81 -465 -125
-63 -20 -128 -40 -145 -45 -16 -4 -50 -15 -75 -24 -25 -9 -65 -24 -90 -32
-121 -42 -388 -145 -480 -186 -25 -11 -61 -27 -80 -35 -104 -45 -236 -108
-415 -199 -201 -102 -236 -121 -353 -188 -35 -20 -66 -36 -68 -36 -3 0 -10 -5
-17 -10 -10 -9 -152 -96 -246 -151 -14 -8 -30 -17 -35 -22 -16 -11 -315 -210
-333 -222 -9 -5 -24 -15 -32 -22 -9 -6 -99 -74 -201 -149 -164 -122 -440 -340
-495 -391 -11 -10 -47 -41 -80 -68 -33 -28 -65 -54 -71 -60 -6 -5 -37 -32 -69
-60 -32 -27 -65 -57 -74 -66 -9 -9 -41 -38 -71 -64 -239 -209 -826 -796 -1230
-1230 -204 -220 -748 -769 -925 -935 -86 -80 -272 -249 -321 -290 -54 -47
-182 -155 -230 -195 -26 -22 -68 -55 -93 -74 -26 -19 -48 -38 -51 -41 -11 -14
-333 -251 -455 -336 -196 -135 -421 -280 -565 -362 -19 -11 -64 -36 -100 -57
-166 -95 -387 -208 -550 -279 -58 -26 -112 -50 -121 -55 -18 -11 -174 -75
-228 -95 -188 -70 -246 -91 -306 -111 -79 -26 -319 -100 -380 -117 -22 -6 -60
-16 -85 -23 -25 -7 -63 -17 -85 -23 -22 -6 -65 -17 -95 -25 -30 -8 -77 -20
-105 -26 -27 -7 -66 -16 -85 -21 -60 -15 -261 -58 -355 -75 -49 -9 -99 -19
-110 -22 -11 -3 -47 -9 -80 -13 -33 -4 -109 -15 -170 -24 -155 -23 -275 -35
-460 -46 -88 -5 -230 -14 -315 -20 -202 -12 -411 -12 -585 1 -470 35 -498 38
-780 90 -128 24 -142 23 -159 -4 -14 -21 -15 -35 -7 -93 13 -89 24 -147 49
-269 11 -55 22 -111 25 -125 4 -22 17 -83 56 -270 6 -25 13 -58 16 -75 3 -16
14 -39 23 -51 32 -38 65 -43 437 -74 55 -5 165 -16 245 -25 204 -23 424 -30
570 -16 69 6 224 16 345 22 341 17 519 34 740 69 33 5 90 13 127 19 37 5 89
14 115 20 26 5 75 15 108 22 144 27 475 107 497 119 10 6 27 10 37 10 11 0 30
4 43 9 13 6 57 19 98 31 41 12 100 30 130 40 30 10 143 46 250 80 316 101 665
220 745 255 22 9 59 23 83 31 24 9 72 28 107 45 35 16 66 29 69 29 24 0 455
217 556 279 45 28 83 51 86 51 2 0 73 42 156 93 84 51 160 96 168 100 24 12
53 30 87 55 17 12 34 22 37 22 4 0 12 5 19 10 7 6 75 52 152 103 235 155 453
320 585 441 25 22 97 88 160 146 161 148 443 419 703 675 211 207 1016 997
1076 1055 32 30 174 168 317 305 142 138 308 298 368 355 59 58 129 125 155
150 77 75 294 275 336 311 22 19 45 39 51 44 33 29 74 64 119 100 28 22 52 42
55 45 3 3 34 28 70 55 36 28 67 53 70 56 12 14 225 170 372 274 90 63 168 118
174 122 5 4 17 13 26 18 9 6 58 38 108 73 51 34 96 62 100 62 5 0 10 4 12 9 2
6 74 53 161 105 169 101 428 233 647 329 53 23 286 112 370 142 41 14 83 30
92 36 10 5 24 9 33 9 8 0 29 6 47 14 45 20 342 110 483 147 22 6 54 14 70 19
43 13 330 85 395 99 30 7 82 18 115 26 100 23 282 57 395 75 41 6 94 16 117
21 23 5 61 9 85 9 24 0 61 5 83 10 22 5 118 16 213 24 199 18 828 22 982 6
149 -15 336 -32 450 -40 58 -5 161 -13 230 -20 268 -25 305 -26 350 -16 29 7
46 17 48 28 4 19 -21 78 -52 123 -12 16 -28 41 -36 55 -37 64 -195 308 -337
522 -102 154 -150 208 -202 231 -14 6 -69 15 -121 19 -126 12 -1018 18 -1050
8z"/>
<path d="M5375 17129 c-481 -46 -575 -66 -617 -132 -8 -12 -34 -69 -57 -127
-23 -58 -46 -114 -50 -125 -24 -56 -39 -93 -51 -125 -7 -19 -18 -48 -25 -65
-7 -16 -20 -50 -28 -75 -9 -25 -33 -90 -54 -145 -80 -207 -86 -237 -46 -252
18 -7 119 7 218 31 215 50 367 73 775 113 240 24 799 24 1020 0 250 -27 418
-49 580 -77 105 -17 335 -61 370 -70 19 -4 58 -13 85 -19 78 -16 187 -41 225
-51 19 -5 69 -17 110 -26 41 -9 84 -20 95 -25 20 -7 75 -22 145 -39 57 -13
193 -50 220 -59 14 -5 45 -14 70 -21 25 -7 61 -18 80 -25 19 -7 55 -18 80 -25
25 -7 56 -17 70 -22 14 -6 50 -18 80 -28 67 -22 213 -76 255 -94 16 -8 75 -33
130 -56 133 -56 410 -195 510 -255 145 -88 399 -248 477 -302 43 -29 80 -53
82 -53 3 0 31 -18 63 -40 32 -22 65 -45 73 -50 8 -5 33 -22 55 -37 367 -247
406 -270 449 -259 14 3 115 98 239 224 376 382 361 364 333 406 -16 26 -119
110 -246 201 -46 33 -113 81 -149 107 -36 26 -71 52 -77 57 -32 27 -384 256
-484 315 -63 38 -140 83 -171 102 -30 18 -84 48 -120 67 -35 19 -82 45 -104
57 -75 43 -430 218 -577 284 -104 47 -367 151 -505 200 -40 14 -103 37 -140
50 -93 33 -305 98 -508 156 -16 4 -64 16 -105 26 -41 9 -84 20 -95 24 -18 7
-125 32 -320 75 -60 14 -160 34 -370 75 -157 31 -391 66 -520 80 -392 39 -596
50 -945 49 -239 -1 -389 -7 -525 -20z"/>
<path d="M19125 17139 c-436 -37 -605 -54 -760 -78 -38 -6 -101 -16 -140 -22
-76 -11 -207 -35 -270 -49 -22 -4 -67 -14 -100 -20 -33 -7 -85 -18 -115 -26
-143 -34 -267 -65 -290 -73 -14 -5 -54 -17 -90 -26 -99 -27 -342 -108 -465
-155 -60 -23 -121 -46 -135 -51 -175 -57 -619 -215 -642 -229 -10 -5 -24 -10
-32 -10 -8 0 -27 -7 -43 -15 -15 -8 -80 -39 -144 -69 -102 -47 -151 -73 -294
-156 -16 -9 -60 -36 -98 -58 -37 -23 -70 -42 -72 -42 -3 0 -36 -20 -73 -43
-143 -93 -253 -162 -272 -172 -11 -5 -20 -13 -20 -17 0 -5 -5 -8 -10 -8 -6 0
-16 -5 -23 -10 -7 -6 -86 -61 -177 -123 -222 -151 -537 -385 -715 -530 -85
-69 -280 -231 -285 -236 -3 -4 -36 -33 -75 -66 -85 -73 -133 -115 -155 -135
-8 -8 -65 -60 -125 -114 -139 -125 -749 -736 -875 -876 -52 -58 -122 -134
-155 -170 -34 -36 -88 -94 -120 -130 -74 -81 -316 -330 -455 -470 -299 -299
-494 -479 -875 -809 -73 -63 -287 -231 -294 -231 -5 0 -11 -4 -13 -9 -3 -9
-107 -90 -195 -153 -199 -142 -295 -206 -458 -307 -236 -146 -291 -178 -385
-227 -41 -21 -77 -41 -80 -44 -15 -16 -522 -259 -605 -290 -19 -7 -29 -11
-105 -44 -19 -8 -66 -26 -105 -41 -38 -15 -79 -31 -90 -36 -49 -22 -316 -113
-450 -154 -49 -14 -103 -31 -120 -37 -16 -5 -43 -12 -60 -15 -16 -3 -34 -8
-40 -13 -5 -4 -23 -10 -40 -13 -26 -4 -81 -17 -235 -57 -122 -31 -161 -40
-215 -50 -33 -6 -78 -15 -100 -20 -140 -30 -228 -46 -410 -75 -55 -9 -125 -20
-156 -25 -30 -6 -73 -10 -96 -10 -22 0 -63 -4 -90 -9 -28 -6 -90 -13 -139 -16
-49 -4 -141 -10 -204 -16 -156 -12 -626 -12 -780 1 -176 15 -473 52 -600 75
-41 7 -106 18 -145 24 -182 28 -275 42 -327 52 -31 6 -60 9 -66 5 -23 -14 74
-317 163 -511 7 -16 23 -57 35 -90 12 -33 28 -73 35 -90 7 -16 19 -48 26 -70
7 -22 17 -44 21 -49 4 -6 8 -18 8 -28 0 -10 14 -40 30 -67 41 -65 94 -92 209
-102 47 -5 142 -15 211 -24 376 -47 977 -54 1370 -15 106 10 291 28 420 40 47
5 132 16 190 25 58 9 123 19 145 21 42 5 76 11 245 45 58 12 123 25 145 29 22
4 101 23 175 43 74 20 171 45 215 57 44 11 103 27 130 35 28 7 68 18 90 24 52
13 191 50 230 61 17 5 64 18 105 29 41 12 83 26 92 31 10 6 23 10 30 10 11 0
266 90 313 110 11 4 83 34 160 65 205 84 298 127 535 245 156 78 211 107 328
174 35 20 66 36 68 36 7 0 410 244 440 266 17 13 34 24 38 24 4 0 12 5 19 10
7 6 95 67 197 136 165 113 407 287 420 303 3 3 32 26 65 51 62 46 206 160 215
170 3 3 30 25 60 50 30 25 60 50 66 55 6 6 30 27 54 46 23 18 52 43 64 54 13
11 40 35 62 54 297 261 801 757 1143 1127 635 685 1054 1097 1500 1474 29 25
63 53 75 63 74 64 216 179 306 247 47 36 87 68 90 71 5 5 115 87 261 193 90
66 303 212 389 266 186 117 333 207 430 261 117 66 436 225 500 249 19 7 40
17 45 21 9 7 97 43 220 91 88 34 236 87 355 126 111 37 154 50 250 77 25 7 63
18 85 24 80 22 201 52 245 61 25 5 88 18 140 29 52 12 118 25 145 30 28 6 77
15 110 22 65 13 149 25 260 38 39 5 149 18 245 30 438 53 603 64 1000 69 286
3 396 0 510 -12 80 -9 190 -21 245 -27 55 -6 147 -17 205 -25 58 -8 137 -18
175 -24 39 -5 106 -14 150 -20 126 -18 244 -18 256 0 11 16 4 96 -9 114 -5 6
-15 27 -22 46 -7 19 -19 49 -26 65 -7 17 -29 73 -49 125 -21 52 -43 109 -51
127 -8 17 -14 34 -14 37 0 3 -16 40 -35 82 -19 41 -35 80 -35 85 0 5 -4 17 -9
27 -5 9 -24 51 -41 92 -33 76 -60 114 -94 132 -29 16 -141 30 -456 57 -69 6
-172 16 -230 21 -124 12 -842 11 -985 -1z"/>
<path d="M4895 15558 c-131 -9 -232 -20 -400 -44 -253 -35 -279 -53 -314 -219
-26 -118 -44 -204 -51 -240 -4 -22 -16 -76 -25 -120 -40 -187 -59 -309 -51
-341 12 -48 52 -50 291 -18 22 3 81 9 130 14 50 5 151 16 225 25 74 9 173 20
220 25 148 14 294 30 327 35 30 5 134 0 483 -25 80 -6 179 -12 220 -14 97 -6
268 -23 345 -35 33 -6 78 -12 100 -15 22 -3 76 -12 120 -21 44 -9 103 -20 130
-25 28 -6 68 -14 90 -19 22 -5 74 -17 115 -26 41 -9 93 -20 115 -25 22 -5 72
-17 110 -26 112 -26 133 -31 275 -67 412 -106 650 -176 775 -227 17 -6 50 -19
75 -27 50 -16 219 -84 290 -116 112 -50 436 -210 502 -248 40 -23 92 -52 115
-66 24 -13 84 -50 135 -81 180 -112 199 -113 344 -5 58 43 127 94 154 113 268
195 420 323 420 352 0 22 -68 77 -185 150 -71 45 -132 84 -135 88 -3 3 -18 12
-35 20 -16 8 -65 36 -107 63 -43 26 -82 47 -87 47 -5 0 -11 3 -13 8 -1 4 -34
23 -73 44 -38 20 -106 55 -150 79 -139 74 -273 139 -518 252 -32 15 -63 27
-70 27 -7 0 -17 4 -22 9 -8 7 -137 59 -300 121 -11 4 -38 15 -60 23 -22 9 -92
33 -155 53 -63 20 -131 42 -150 49 -19 7 -84 27 -145 45 -60 17 -123 35 -140
40 -16 4 -70 20 -120 35 -118 34 -261 74 -305 85 -19 5 -62 16 -95 25 -66 18
-114 29 -191 44 -27 5 -68 14 -90 19 -38 9 -104 20 -249 41 -188 27 -886 97
-1214 121 -155 12 -482 11 -656 -2z"/>
<path d="M19855 15559 c-404 -22 -753 -55 -955 -90 -30 -5 -100 -16 -155 -25
-110 -17 -340 -60 -395 -74 -19 -5 -89 -21 -155 -36 -104 -23 -197 -47 -335
-83 -80 -22 -227 -67 -410 -127 -255 -83 -295 -97 -405 -144 -11 -5 -67 -27
-124 -50 -57 -23 -111 -46 -120 -50 -9 -5 -32 -15 -51 -23 -138 -60 -215 -96
-354 -167 -87 -44 -190 -99 -227 -120 -37 -22 -72 -40 -78 -40 -6 0 -11 -4
-11 -10 0 -5 -4 -10 -9 -10 -11 0 -165 -91 -306 -182 -104 -66 -269 -182 -394
-275 -31 -24 -63 -46 -71 -50 -8 -3 -17 -9 -20 -13 -3 -4 -60 -47 -126 -97
-67 -50 -152 -114 -190 -144 -38 -29 -98 -75 -134 -103 -36 -28 -81 -64 -101
-81 -40 -34 -55 -45 -119 -95 -25 -19 -47 -37 -50 -40 -3 -3 -45 -39 -95 -80
-81 -68 -127 -106 -159 -135 -6 -5 -40 -35 -76 -65 -36 -30 -74 -64 -86 -75
-11 -11 -44 -40 -73 -65 -59 -51 -56 -47 -286 -264 -174 -163 -458 -448 -589
-591 -41 -44 -86 -93 -102 -110 -15 -16 -57 -64 -93 -105 -36 -41 -75 -84 -86
-96 -11 -12 -69 -75 -130 -140 -312 -340 -782 -786 -1060 -1009 -27 -22 -79
-64 -115 -93 -36 -30 -72 -60 -81 -67 -9 -7 -63 -50 -120 -96 -57 -46 -140
-111 -183 -144 -44 -33 -118 -89 -165 -125 -253 -192 -622 -434 -851 -559
-147 -80 -423 -214 -550 -266 -63 -27 -119 -52 -124 -56 -6 -5 -19 -9 -31 -9
-12 0 -25 -4 -31 -9 -5 -4 -22 -13 -39 -19 -16 -6 -75 -27 -130 -47 -101 -37
-380 -129 -445 -147 -37 -10 -60 -16 -150 -43 -150 -44 -512 -135 -675 -169
-71 -15 -144 -31 -161 -37 -17 -5 -44 -9 -60 -9 -16 0 -58 -6 -94 -14 -95 -21
-320 -53 -520 -75 -267 -28 -390 -35 -665 -35 -278 -1 -379 5 -620 34 -44 6
-105 12 -135 15 -30 3 -93 9 -140 15 -47 5 -132 15 -190 21 -58 6 -141 17
-186 25 -92 16 -131 18 -138 5 -5 -7 70 -168 84 -181 14 -13 306 -459 369
-563 111 -184 189 -245 341 -266 217 -30 805 -38 900 -12 35 10 156 23 360 41
58 4 134 13 170 19 36 6 92 13 125 15 132 11 295 32 510 65 55 9 313 60 480
95 91 20 423 103 455 115 14 5 45 14 70 21 127 35 516 165 585 195 17 7 52 20
79 29 183 62 706 303 960 445 70 39 130 71 132 71 2 0 28 16 58 35 30 19 60
35 66 35 5 0 10 4 10 9 0 5 9 13 20 16 12 4 53 28 93 54 40 27 121 81 181 120
161 107 517 377 701 532 72 61 185 154 260 214 48 39 92 75 99 81 6 5 38 32
71 58 417 335 578 483 949 876 433 457 1176 1210 1351 1366 103 92 257 224
395 338 175 145 377 316 460 390 108 96 381 304 575 438 94 64 432 278 440
278 1 0 51 27 111 61 256 143 522 264 899 409 11 4 38 15 60 23 22 9 58 21 80
28 22 6 56 18 75 25 19 7 51 18 70 23 80 25 199 60 255 76 33 9 70 21 83 26
13 5 33 9 44 9 12 0 35 4 52 10 41 13 222 56 316 75 41 8 108 21 148 30 40 8
98 19 130 24 31 5 100 17 152 25 52 9 133 21 180 27 47 6 139 17 205 25 222
27 498 39 895 39 448 0 695 -15 1090 -65 208 -27 209 -27 226 -9 18 20 14 67
-18 224 -12 55 -24 123 -29 150 -4 28 -15 86 -24 130 -18 91 -31 164 -44 250
-11 72 -34 120 -68 142 -41 27 -263 51 -708 78 -258 16 -559 17 -800 4z"/>
<path d="M16000 12879 c-163 -117 -518 -389 -546 -419 -13 -14 -24 -36 -24
-51 0 -26 36 -69 58 -69 7 0 12 -4 12 -10 0 -5 4 -10 10 -10 13 0 114 -62 118
-72 2 -4 8 -8 13 -8 5 0 46 -23 92 -51 45 -29 96 -59 112 -69 17 -10 95 -58
175 -107 80 -49 172 -104 205 -122 33 -18 65 -36 70 -41 35 -27 501 -260 520
-260 2 0 30 -12 62 -26 78 -35 82 -37 213 -88 166 -64 608 -207 700 -227 19
-4 62 -15 95 -24 61 -18 110 -30 180 -45 22 -4 56 -12 75 -18 19 -5 62 -15 95
-22 88 -17 132 -27 205 -43 36 -8 94 -20 130 -26 36 -5 103 -17 150 -25 166
-28 335 -52 475 -67 367 -39 1055 -76 1202 -65 48 3 180 13 293 21 113 9 270
20 350 25 215 15 295 25 320 43 34 23 61 75 70 132 12 73 27 157 45 260 20
109 29 160 45 244 6 36 13 67 15 71 2 3 8 42 15 88 15 115 9 125 -78 119 -37
-2 -112 -12 -167 -21 -156 -28 -224 -35 -455 -47 -394 -22 -1215 -15 -1385 12
-33 5 -85 9 -116 9 -30 0 -80 4 -110 10 -30 5 -94 15 -144 21 -205 26 -346 49
-367 60 -9 5 -28 9 -41 9 -40 0 -535 115 -667 155 -25 7 -65 19 -90 25 -91 24
-399 125 -447 146 -17 8 -36 14 -42 14 -6 0 -19 4 -29 9 -18 9 -38 18 -112 46
-25 10 -54 21 -65 25 -143 55 -547 261 -692 353 -24 15 -47 27 -53 27 -5 0
-10 5 -10 10 0 6 -5 10 -11 10 -6 0 -25 10 -42 23 -68 48 -237 134 -283 143
-26 5 -46 -6 -144 -77z"/>
<path d="M14810 11893 c-34 -14 -90 -65 -244 -221 -88 -91 -165 -170 -171
-176 -5 -6 -43 -46 -82 -89 -60 -64 -73 -83 -73 -110 0 -44 18 -60 220 -201
91 -63 170 -120 177 -125 7 -6 15 -11 19 -11 4 0 21 -11 38 -23 17 -13 119
-79 226 -146 259 -163 354 -224 360 -232 3 -3 21 -14 40 -24 19 -10 37 -21 40
-24 3 -3 16 -12 30 -20 14 -8 105 -63 203 -123 98 -59 179 -108 181 -108 2 0
43 -23 92 -51 123 -71 442 -225 579 -280 56 -22 270 -101 307 -113 24 -7 75
-23 113 -36 39 -12 84 -26 100 -31 17 -4 55 -15 85 -24 30 -9 71 -20 90 -25
19 -4 78 -19 130 -33 52 -14 133 -35 180 -46 47 -12 101 -26 120 -31 38 -10
243 -55 330 -72 30 -6 82 -16 115 -23 33 -8 92 -19 130 -25 39 -6 90 -15 115
-20 77 -15 191 -31 470 -66 190 -23 480 -38 745 -39 251 0 787 19 803 29 4 2
100 8 213 11 312 10 337 22 410 199 23 55 48 115 55 131 7 17 24 61 39 100 14
38 30 74 35 79 6 6 10 17 10 26 0 9 11 40 25 68 14 29 25 58 25 65 0 7 4 17 9
23 21 23 84 210 85 253 l1 46 -44 3 c-45 3 -137 -7 -301 -34 -103 -17 -177
-27 -310 -43 -47 -5 -125 -14 -175 -20 -204 -23 -378 -31 -715 -31 -336 0
-485 6 -715 31 -55 6 -136 15 -180 19 -119 12 -234 27 -290 38 -27 6 -84 16
-125 22 -41 7 -142 26 -225 42 -82 17 -170 34 -195 39 -25 5 -81 18 -125 28
-44 11 -129 32 -190 46 -60 15 -123 31 -140 36 -16 4 -57 16 -90 25 -66 18
-231 70 -370 116 -387 129 -822 336 -1210 576 -147 92 -429 279 -494 329 -36
27 -339 250 -368 271 -34 24 -87 36 -113 25z"/>
<path d="M13705 10736 c-16 -7 -97 -83 -178 -169 -81 -86 -191 -200 -244 -254
-98 -101 -133 -146 -133 -174 0 -29 39 -67 208 -202 389 -309 752 -588 932
-716 63 -44 120 -84 125 -89 43 -34 392 -253 485 -305 30 -17 71 -39 90 -50
114 -66 417 -220 550 -280 30 -13 75 -33 100 -44 25 -12 81 -35 125 -53 90
-36 140 -57 170 -70 11 -5 54 -20 95 -35 41 -15 84 -30 95 -35 25 -11 291 -99
406 -134 47 -14 95 -26 107 -26 11 0 24 -4 27 -10 3 -5 16 -10 29 -10 12 0 42
-6 67 -14 77 -24 290 -76 369 -89 14 -3 72 -14 130 -26 144 -29 198 -39 245
-46 22 -3 83 -13 135 -21 104 -17 193 -29 315 -43 44 -5 118 -14 165 -20 47
-6 144 -15 215 -21 72 -5 222 -18 335 -27 277 -24 777 -24 970 1 154 19 190
29 242 62 38 25 65 63 493 722 60 91 88 153 83 178 -7 37 -108 38 -395 3 -45
-5 -117 -12 -160 -15 -43 -3 -100 -9 -126 -15 -26 -5 -74 -9 -105 -9 -31 0
-84 -4 -117 -10 -33 -5 -175 -14 -316 -20 -338 -15 -671 -2 -1029 41 -147 18
-481 67 -535 79 -22 4 -71 13 -110 20 -194 32 -487 99 -680 155 -160 46 -200
59 -209 67 -6 4 -19 8 -30 8 -17 0 -134 37 -191 60 -11 4 -36 14 -55 20 -19 7
-48 19 -65 26 -16 7 -50 19 -75 28 -118 39 -359 147 -590 265 -226 115 -224
114 -230 120 -3 3 -30 19 -60 35 -30 17 -96 56 -147 88 -51 32 -97 58 -102 58
-5 0 -11 4 -13 8 -1 4 -43 33 -93 64 -79 50 -243 162 -314 215 -13 10 -53 39
-90 65 -36 26 -70 51 -76 55 -5 5 -39 31 -75 58 -119 90 -334 258 -396 310
-208 173 -258 211 -287 222 -41 15 -46 15 -82 -1z"/>
</g>
</svg>
